<?xml version="1.0" encoding="utf-8"?>
<!-- Generator: Adobe Illustrator 20.1.0, SVG Export Plug-In . SVG Version: 6.00 Build 0)  -->
<svg version="1.1" id="Layer_1" xmlns="http://www.w3.org/2000/svg" xmlns:xlink="http://www.w3.org/1999/xlink" x="0px" y="0px"
	 viewBox="0 0 900 900" style="enable-background:new 0 0 900 900;" xml:space="preserve">
<style type="text/css">
	.st0{fill:#9A2D21;}
	.st1{fill:#113D64;}
</style>
<g>
	<path class="st0" d="M392.8,391.4l93.2-59.9c-19.3,2.7-38.7,5.4-58.2,8.1L392.8,391.4z"/>
	<path class="st0" d="M251.4,865l331.5-549.2c-21.1,4-42.2,7.2-63.4,10.4L251.4,865z"/>
</g>
<path d="M427.8,339.6c-5.2,0.9-10.4,2-15.5,3.2l-50.4,74.8l145.3-86.3L252.2,864l267.3-537.7c-11.2,2.3-22.4,4-33.7,5.5l-92.4,59.4
	L427.8,339.6z"/>
<path d="M563,272l-68.2,48.9c11.9-1.4,35.3-5.2,47.4-7.3L563,272z"/>
<path d="M591.5,116.4l14-39.6L435,330.1c5.2-1.2,10.3-1.6,15.5-3.2L591.5,116.4z"/>
<path class="st1" d="M261,510.9l197.2-126L239.8,890.9l268.4-560.7L363,416.6l49.3-73.8c-13.2,2.2-22.2,2.8-34.4,4.9L261,510.9z"/>
<path class="st1" d="M625.3,22L401.3,335.1c12.2-1.1,22.9-2.7,34.9-5.2l170.4-253L625.3,22z"/>
<path class="st0" d="M552.1,251l39.4-134.6L449.2,327.3c19.5-2.7,39.8-5.6,59.1-8.3l43.8-28.5l-11.7,23.5
	c21.2-3.2,41.9-6.5,63.1-10.2L667,198.4L552.1,251z"/>
</svg>
